<?xml version="1.0" encoding="UTF-8"?>
<svg id="Layer_1" data-name="Layer 1" xmlns="http://www.w3.org/2000/svg" viewBox="0 0 568.2 643.89">
  <defs>
    <style>
      .cls-1, .cls-2 {
        fill: #ed5c23;
      }

      .cls-1, .cls-3, .cls-4, .cls-5, .cls-6, .cls-7, .cls-8, .cls-9, .cls-10 {
        stroke-miterlimit: 10;
      }

      .cls-1, .cls-3, .cls-4, .cls-5, .cls-6, .cls-7, .cls-9, .cls-10 {
        stroke: #231f20;
      }

      .cls-1, .cls-3, .cls-5, .cls-6, .cls-7, .cls-8, .cls-9 {
        stroke-width: 2px;
      }

      .cls-11 {
        fill: #edcf17;
      }

      .cls-3 {
        fill: #d1d3d4;
      }

      .cls-4 {
        fill: #fff;
      }

      .cls-4, .cls-10 {
        stroke-width: 5px;
      }

      .cls-12 {
        fill: #86c478;
      }

      .cls-5, .cls-10 {
        fill: #603913;
      }

      .cls-6, .cls-8 {
        fill: none;
      }

      .cls-7 {
        fill: #3b86a3;
      }

      .cls-8 {
        stroke: #000;
      }

      .cls-9 {
        fill: #edcf1a;
      }
    </style>
  </defs>
  <ellipse class="cls-10" cx="284.1" cy="321.94" rx="342.41" ry="253.07" transform="translate(-139.92 389.52) rotate(-57.63)"/>
  <path class="cls-4" d="m477.44,39.52c-11.1-8.33-17.57,3.3-34.17,12.28-37.82,20.47-56.72,30.71-77.42,47.75-8.81,7.25-38.97,32.76-68.92,74.19-24.46,33.83-37.59,62.81-41.93,72.78-10.87,24.99-16.13,44.68-17.58,50.32-4.33,16.73-5.11,25.39-8.59,46.76-6.27,38.43-9.4,57.65-15.57,77.69-3.82,12.39-13.98,42.28-35.76,75-12.17,18.28-23.08,30.11-42.62,51.29-22.3,24.18-33.45,36.26-43.23,41.64-7.8,4.28-6.74,3.21-9.75,5.87,0,0-1.34,1.33-.65,1.9,1.19.98,3.36,2.66,4.75,3.74,2.59,2.01,4.27,3.26,7.23,5.3,3.18,2.19,4.88,3.4,7.54,5.12,2.16,1.4,3.9,2.43,6.03,3.85,1.35.9,2.33,1.89,3.12,1.24,2.65-2.2-.34-.27,6.09-5.67,4.52-3.8,8.99-8.92,12.91-11.35,7.05-4.38,11.04-8.03,18.41-16.3,9.64-10.83,7.67-5.86,19.33-17.7,7.62-7.74,12.5-13.87,19.21-22.34,10.13-12.79,22.45-28.34,34.93-51.11,11.52-21.03,17.61-38.03,18.96-41.87,3.47-9.85,6.18-21.52,11.59-44.85,7.92-34.1,11.87-51.15,12.7-65.2.15-2.62.5-9.93,2.31-19.58,1.32-7.06,2.88-12.46,4.33-17.46,1.08-3.7,2.57-8.53,7.76-22.87,3.83-10.58,5.74-15.87,7.06-19.1,6.12-15.03,12.53-25.59,24.03-44.55,4.97-8.2,7.58-12.49,11.8-18.62,7.19-10.42,13.03-17.41,22.04-28.13,10.88-12.94,16.95-20.16,26.35-29.61,7.17-7.22,14.67-14.75,25.7-23.28,3.81-2.94,18.18-13.85,39.88-24.39,19.29-9.37,30.13-14.64,45.79-16.44,22.07-2.53,25.99,1.73,28.96-3.32,1.69-2.87-.32-2.71-4.84-8.03-4.26-5.02-7.16-7.55-14.33-14.15-3.38-3.12-9.78-8.01-13.46-10.77Z"/>
  <rect class="cls-2" x="168.86" y="199.46" width="234.9" height="7.76"/>
  <rect class="cls-2" x="168.86" y="250.7" width="234.9" height="7.76"/>
  <rect class="cls-2" x="150.99" y="225.08" width="43.49" height="7.76" transform="translate(-56.22 401.7) rotate(-90)"/>
  <rect class="cls-3" x="176.62" y="207.21" width="213.57" height="43.9"/>
  <path class="cls-5" d="m393.91,250.29c-6.22,0-11.25-9.55-11.25-21.33s5.04-21.33,11.25-21.33"/>
  <rect class="cls-12" x="151.64" y="258.46" width="247.08" height="7.76"/>
  <rect class="cls-12" x="151.64" y="309.7" width="247.08" height="7.76"/>
  <rect class="cls-12" x="372.9" y="283.88" width="43.49" height="8.16" transform="translate(106.68 682.6) rotate(-90)"/>
  <rect class="cls-3" x="165.21" y="266.21" width="225.35" height="43.49"/>
  <rect class="cls-7" x="179.06" y="317.46" width="252.9" height="44.32"/>
  <rect class="cls-11" x="148.31" y="361.78" width="235.17" height="9.42"/>
  <rect class="cls-11" x="148.31" y="392.94" width="235.17" height="9.42"/>
  <rect class="cls-11" x="367.9" y="377.36" width="21.74" height="9.42" transform="translate(-3.29 760.85) rotate(-90)"/>
  <rect class="cls-9" x="151.64" y="147.52" width="229.43" height="52.35"/>
  <rect class="cls-1" x="164.38" y="402.36" width="246.67" height="50.96"/>
  <rect class="cls-12" x="139.1" y="453.32" width="290.57" height="8.86"/>
  <rect class="cls-12" x="139.1" y="504.7" width="290.57" height="8.86"/>
  <rect class="cls-12" x="123" y="478.29" width="42.52" height="10.32" transform="translate(-339.18 627.71) rotate(-90)"/>
  <rect class="cls-3" x="155.72" y="371.2" width="218.35" height="21.74"/>
  <rect class="cls-3" x="149.42" y="462.18" width="276.33" height="43"/>
  <path class="cls-5" d="m428.54,504.78c-10.7,0-19.38-9.44-19.38-21.09s8.68-21.09,19.38-21.09"/>
  <line class="cls-8" x1="168.86" y1="201.3" x2="403.75" y2="199.87"/>
  <line class="cls-8" x1="168.86" y1="257.44" x2="168.86" y2="199.46"/>
  <line class="cls-8" x1="390.18" y1="207.21" x2="403.75" y2="207.21"/>
  <line class="cls-8" x1="402.73" y1="199.46" x2="402.73" y2="207.21"/>
  <line class="cls-8" x1="390.18" y1="251.12" x2="403.75" y2="250.7"/>
  <line class="cls-8" x1="402.73" y1="258.46" x2="402.73" y2="250.7"/>
  <line class="cls-8" x1="398.72" y1="258.46" x2="403.75" y2="258.46"/>
  <line class="cls-6" x1="151.64" y1="258.46" x2="398.72" y2="258.46"/>
  <line class="cls-6" x1="152.77" y1="265.83" x2="152.77" y2="258.08"/>
  <line class="cls-6" x1="165.21" y1="266.21" x2="151.64" y2="266.21"/>
  <line class="cls-6" x1="398.72" y1="258.46" x2="398.72" y2="317.46"/>
  <line class="cls-6" x1="179.06" y1="317.46" x2="151.64" y2="317.46"/>
  <line class="cls-6" x1="165.21" y1="309.7" x2="151.64" y2="309.7"/>
  <line class="cls-6" x1="152.77" y1="317.46" x2="152.77" y2="309.7"/>
  <line class="cls-6" x1="148.31" y1="361.78" x2="383.49" y2="361.78"/>
  <line class="cls-6" x1="383.49" y1="402.36" x2="383.49" y2="361.78"/>
  <line class="cls-6" x1="155.72" y1="371.2" x2="148.31" y2="371.2"/>
  <line class="cls-6" x1="149.36" y1="361.78" x2="149.36" y2="371.2"/>
  <line class="cls-6" x1="155.72" y1="392.94" x2="148.31" y2="392.94"/>
  <line class="cls-6" x1="149.36" y1="402.26" x2="149.36" y2="392.85"/>
  <line class="cls-6" x1="164.38" y1="402.36" x2="148.31" y2="402.36"/>
  <line class="cls-6" x1="139.1" y1="453.32" x2="429.67" y2="453.32"/>
  <line class="cls-6" x1="428.54" y1="462.18" x2="428.54" y2="453.32"/>
  <line class="cls-6" x1="419.37" y1="462.18" x2="429.67" y2="462.18"/>
  <line class="cls-6" x1="139.1" y1="513.57" x2="139.1" y2="453.32"/>
  <line class="cls-6" x1="429.67" y1="513.57" x2="139.1" y2="513.57"/>
  <line class="cls-6" x1="428.54" y1="504.7" x2="428.54" y2="513.57"/>
  <line class="cls-6" x1="418.54" y1="505.26" x2="429.68" y2="505.19"/>
</svg>