<?xml version="1.0" encoding="UTF-8"?>
<svg id="Layer_1" data-name="Layer 1" xmlns="http://www.w3.org/2000/svg" viewBox="0 0 560.72 506.31">
  <defs>
    <style>
      .cls-1 {
        fill: #fff;
      }

      .cls-2 {
        fill: #754c29;
      }

      .cls-2, .cls-3 {
        stroke: #231f20;
        stroke-miterlimit: 10;
        stroke-width: 3px;
      }

      .cls-3 {
        fill: #3b86a3;
      }
    </style>
  </defs>
  <g>
    <ellipse class="cls-3" cx="264.44" cy="182.17" rx="127.7" ry="53.82"/>
    <polygon class="cls-3" points="384.35 161.38 388.25 160.74 391.27 160.39 397.12 160.15 403.12 160.59 408.5 161.58 412.67 162.9 418.12 165.12 422.18 167.67 425.28 170.1 426.84 171.53 428.59 173.16 430.73 175.51 432.48 177.66 434.01 180.02 435.04 181.86 435.94 183.54 436.59 184.96 437.17 186.31 437.94 188.28 438.43 189.86 438.86 191.18 439.35 193.27 439.76 194.98 440.05 196.84 440.41 199.43 440.61 201.7 440.72 203.27 440.72 204.86 440.72 206.59 440.61 208.41 440.52 210.44 440.34 212.26 439.85 215.58 439.31 218.61 438.86 220.84 438.3 223.11 437.71 225.15 436.59 228.7 435.38 231.96 433.89 235.53 432.21 239.26 429.78 243.93 427.81 247.44 425.6 250.94 423.29 254.31 420.32 258.35 415.86 263.86 411.32 268.96 406.86 273.41 400.86 278.78 393.46 284.23 388.45 287.5 383.43 290.4 377.78 293.18 371.26 295.85 364.46 297.88 360.04 298.83 356.38 299.35 359.88 288.61 363.14 278.15 365.01 277.58 366.88 276.87 370.25 275.47 374.44 273.35 379.09 270.55 381.09 269.29 383.14 267.92 384.87 266.67 387.11 264.91 389.02 263.42 390.63 261.96 392.14 260.58 394.87 258.05 397.02 255.87 399.23 253.48 401.17 251.24 402.96 249.18 404.27 247.45 406.12 245.1 407.52 243.1 408.74 241.19 409.52 239.99 410.18 238.97 411.32 237.07 412.33 235.28 413.26 233.55 413.88 232.36 414.69 230.76 415.44 229.15 415.88 228.15 416.97 225.5 417.54 223.92 418.25 221.94 418.71 220.59 419.16 218.93 419.54 217.51 419.87 216.19 420.19 214.75 420.56 212.65 420.81 210.93 420.98 209.54 421.13 207.22 421.18 205.43 421.13 203.09 420.98 201.29 420.8 199.9 420.39 197.63 419.63 195.05 418.98 193.28 418.48 192.16 418.04 191.24 417.37 190.08 416.76 189.14 415.91 187.95 415.07 186.94 414.47 186.34 413.14 185.05 412.26 184.32 411.41 183.69 410.48 183.08 409.6 182.53 408.78 182.11 407.87 181.65 406.71 181.17 405.45 180.7 404.31 180.39 403.32 180.13 402.41 179.92 401.36 179.74 400.42 179.6 399.44 179.49 398.28 179.43 397.31 179.37 396.5 179.37 395.63 179.37 394.67 179.41 393.93 179.44 393.4 179.49 393.29 178.58 393.07 177.3 392.66 175.56 392.24 174.22 391.41 171.93 390.45 169.97 389.34 167.95 388.33 166.37 386.96 164.56 385.79 163.14 384.7 161.85 384.35 161.38"/>
    <ellipse class="cls-2" cx="260.84" cy="213.14" rx="103.22" ry="40.67"/>
    <polygon class="cls-3" points="144.92 203.34 147.88 212.57 178.5 309.22 179.92 314.8 180.52 317.81 180.97 319.15 182.07 321.36 183.33 323.42 185.09 325.57 187.26 327.69 189.41 329.54 191.29 330.97 193.47 332.46 194.75 333.24 196.3 334.1 198.1 335.1 199.87 336 201.26 336.65 202.93 337.41 204.32 338.02 205.85 338.65 207.69 339.32 210.36 340.31 212.09 340.92 213.75 341.45 215.48 341.97 217.28 342.49 218.88 342.94 220.72 343.39 223.21 344.02 226.24 344.67 229.39 345.3 233.14 345.95 236.69 346.53 239.07 346.82 240.71 347.03 243.68 347.36 246.73 347.68 249.65 347.95 252.55 348.15 255.18 348.31 260.23 348.44 264.89 348.44 268.52 348.44 272.41 348.31 277.11 348.06 280.05 347.88 283.69 347.54 286.9 347.21 289.37 346.91 292.32 346.51 294.38 346.2 297.46 345.68 299.86 345.23 302.36 344.73 304.94 344.17 308.09 343.41 310.71 342.71 312.85 342.11 314.76 341.52 316.11 341.14 317.77 340.56 319.79 339.88 321.54 339.23 322.71 338.76 323.88 338.29 324.91 337.84 325.68 337.5 326.62 337.12 327.65 336.62 328.82 336.09 329.84 335.56 331.75 334.56 333.25 333.7 334.64 332.88 336.21 331.91 337.57 330.96 339.47 329.53 342.14 327.21 344.32 324.9 345.87 322.9 346.91 321.24 347.74 319.55 348.28 317.98 348.73 316.32 348.95 314.74 349.51 311.78 350.55 308.34 361.03 275.32 379.47 217.5 383.2 205.5 383.86 203.34 382.7 204.55 378.07 208.55 373.57 211.86 368.61 214.96 363.26 217.8 352.12 222.81 342.5 226.31 326.11 230.69 316.72 232.75 302.87 234.82 286.56 236.65 279.8 237.05 268.98 237.45 260.7 237.37 246.86 236.97 238.74 236.41 230.31 235.46 221 234.19 214.24 233.15 206.52 231.72 199.99 230.21 194.58 228.7 188.7 226.95 184.48 225.67 179.23 223.76 174.85 222.17 168.8 219.47 165.3 217.8 160.45 215.09 157.07 213.02 153.13 210.4 150.39 208.25 147.32 205.7 144.92 203.34"/>
  </g>
  <g>
    <path class="cls-1" d="m161.47,354.76l25.1,5.22c12.55,2.61,19.4,12.12,16.99,23.68l-2.78,13.39c-1.23,5.92-5.17,11.43-11.2,12.82l-.18.85c5.39,3.77,7.18,10.76,5.86,17.1l-3.34,16.07c-2.4,11.56-12.33,17.59-25.02,14.95l-25.94-5.39,20.52-98.69Zm6.82,87.46c3.1.64,5.63-.89,6.3-4.13l3.28-15.79c.67-3.24-1-5.8-4.1-6.44l-6.2-1.29-4.69,22.56-8.57,1.6-.12.56,14.1,2.93Zm7.63-41.66c3.24.67,5.8-1,6.47-4.24l2.96-14.24c.67-3.24-1.03-5.66-4.27-6.33l-5.22-1.08-4.37,21.01-8.57,1.6-.12.56,13.11,2.73Z"/>
    <path class="cls-1" d="m247.42,448.25l-.76-60.62c-.16-12.96,9.23-21.86,23.34-22.04s23.72,8.49,23.89,21.44l.27,21.02-18.14.23-.26-20.88c-.04-3.31-2.23-5.3-5.54-5.26s-5.45,2.08-5.4,5.4l.76,60.47c.04,3.31,2.23,5.3,5.54,5.26,3.31-.04,5.45-2.08,5.4-5.4l-.28-22.32,18.14-.23.28,22.32c.17,13.1-9.23,22.01-23.34,22.18s-23.72-8.49-23.89-21.59Z"/>
    <path class="cls-1" d="m338.92,361.47l24.79-6.52c12.39-3.26,22.77,2.2,25.77,13.62l3.48,13.23c1.54,5.85.47,12.53-4.3,16.47l.22.84c6.51.97,11.22,6.43,12.87,12.7l4.18,15.88c3,11.42-3.2,21.24-15.73,24.54l-25.62,6.74-25.65-97.49Zm33.36,34.55c3.2-.84,4.74-3.48,3.9-6.68l-3.7-14.07c-.84-3.2-3.45-4.6-6.65-3.76l-5.15,1.36,5.46,20.75-6.96,5.25.15.56,12.95-3.41Zm11.75,40.69c3.06-.81,4.64-3.31,3.8-6.51l-4.1-15.6c-.84-3.2-3.48-4.74-6.54-3.94l-6.13,1.61,5.86,22.28-6.96,5.25.15.56,13.93-3.66Z"/>
  </g>
  <g>
    <path class="cls-1" d="m17.3,77.77l18.52-9.91c9.26-4.95,18.57-2.57,23.13,5.96l5.29,9.89c2.34,4.37,2.75,9.9-.3,13.95l.33.62c5.37-.46,10.17,2.99,12.67,7.68l6.35,11.86c4.56,8.53,1.49,17.54-7.88,22.55l-19.15,10.24L17.3,77.77Zm33.16,21.21c2.39-1.28,3.12-3.68,1.84-6.07l-5.62-10.51c-1.28-2.39-3.62-3.02-6.01-1.74l-3.85,2.06,8.29,15.51-4.55,5.51.22.42,9.68-5.18Zm17.09,30.21c2.29-1.22,3.07-3.52,1.79-5.91l-6.23-11.66c-1.28-2.39-3.68-3.12-5.97-1.9l-4.58,2.45,8.91,16.65-4.55,5.51.22.42,10.41-5.57Z"/>
    <path class="cls-1" d="m91.47,114.2l-16.23-46.96c-3.47-10.04,1.54-19.39,12.47-23.16,10.93-3.78,20.64.48,24.11,10.52l16.23,46.96c3.51,10.15-1.5,19.5-12.43,23.28s-20.64-.48-24.15-10.63Zm22.53-7.79l-16.19-46.85c-.89-2.57-3.1-3.55-5.66-2.66-2.57.89-3.7,3.03-2.81,5.59l16.19,46.85c.89,2.57,3.1,3.55,5.67,2.66,2.57-.89,3.7-3.03,2.81-5.59Z"/>
    <path class="cls-1" d="m137.93,98.9l-10.46-48.57c-2.24-10.38,3.86-19.06,15.17-21.5,11.31-2.43,20.44,2.96,22.67,13.35l10.46,48.57c2.26,10.5-3.84,19.18-15.14,21.61s-20.44-2.96-22.7-13.46Zm23.31-5.02l-10.43-48.46c-.57-2.65-2.65-3.9-5.3-3.32-2.65.57-4.04,2.56-3.46,5.21l10.43,48.46c.57,2.65,2.65,3.9,5.3,3.33,2.65-.57,4.04-2.56,3.46-5.21Z"/>
    <path class="cls-1" d="m179.2,23.39l14.78-1.62,3.38,30.74-6.27,3.42.05.47,9.03-.99,4.6-34.82,16.07-1.77-7.33,41.29,17.3,40.72-16.78,1.84-12.54-34.12-2.35.26,3.85,35.08-14.78,1.62-9.03-82.12Z"/>
    <path class="cls-1" d="m236.64,17.46l26.55.21,3.81,54.79-.1,13.1,2.12.02.1-13.1,4.69-54.72,26.08.21-.66,82.61-14.87-.12.48-59.36.17-6.73-2.01-.02-.29,6.72-5.55,59.32-19.12-.15-4.72-59.4-.06-6.73-2.01-.02.06,6.73-.48,59.36-14.87-.12.66-82.61Z"/>
    <path class="cls-1" d="m325.32,20.63l22.73,2.76-.1,83.2-15.58-1.89.88-19.98-9.02-1.09-3.92,19.61-14.88-1.8,19.9-80.8Zm8.46,51.79l.89-28.9.82-6.79-1.99-.24-.82,6.8-5.53,25.01-7.14,1.99-.06.47,13.83,1.68Z"/>
    <path class="cls-1" d="m372.68,27.21l20.14,4.56c10.47,2.37,16.04,10.41,13.82,20.19l-4.04,17.84c-1.2,5.3-4.38,9.17-8.8,11.08l-.23,35.77-14.62-3.31.97-32.09-4.03-.91-6.95,30.73-14.5-3.28,18.23-80.58Zm10.3,41.66c2.65.6,4.74-.62,5.34-3.27l3.54-15.66c.6-2.65-.76-4.65-3.41-5.25l-4.26-.96-4.77,21.07-7.05,1.19-.1.46,10.71,2.42Z"/>
    <path class="cls-1" d="m428.07,40.83l13.98,5.06-10.52,29.08-7.14.3-.16.44,8.55,3.09,19.48-29.22,15.2,5.5-24.79,33.83-2.43,44.18-15.87-5.74,3.79-36.15-2.22-.8-12,33.18-13.98-5.06,28.1-77.68Z"/>
    <path class="cls-1" d="m449.37,119.26l5.91-10.76,13.03,7.16-5.91,10.76c-1.31,2.38-.55,4.68,1.72,5.93,2.38,1.31,4.73.71,6.03-1.67l4.61-8.38c4.72-8.58-15.18-21.14-6.03-37.79l4.78-8.69c5.17-9.41,15.2-11.98,25.24-6.46,10.03,5.51,13.34,15.42,8.17,24.83l-5.29,9.62-13.03-7.16,5.34-9.72c1.19-2.17.54-4.42-1.73-5.67-2.17-1.19-4.36-.65-5.61,1.63l-3.98,7.24c-4.78,8.69,15.18,21.14,6.03,37.79l-5.46,9.93c-5.17,9.41-15.47,11.97-25.6,6.4-10.13-5.57-13.39-15.58-8.22-24.99Z"/>
  </g>
</svg>